<svg viewBox="0 0 512 512" xmlns="http://www.w3.org/2000/svg">
  <rect width="512" height="512" fill="#2D5DA1"/>
  <path d="M256 178 C256 166 246 156 234 156 L156 156 C138 156 124 170 124 188 L124 334 C124 344 134 351 143 347 C170 335 204 331 236 337 C246 339 256 331 256 321 Z" fill="#FFFFFF"/>
  <path d="M256 178 C256 166 266 156 278 156 L356 156 C374 156 388 170 388 188 L388 334 C388 344 378 351 369 347 C342 335 308 331 276 337 C266 339 256 331 256 321 Z" fill="#FFFFFF"/>
  <line x1="256" y1="178" x2="256" y2="321" stroke="#2D5DA1" stroke-width="6"/>
</svg>
